<svg xmlns="http://www.w3.org/2000/svg" viewBox="0 0 48 48">
  <!-- Tokyo Night Palette -->
  <defs>
    <linearGradient id="grad1" x1="0%" y1="0%" x2="100%" y2="100%">
      <stop offset="0%" style="stop-color:#7aa2f7;stop-opacity:1" />
      <stop offset="100%" style="stop-color:#bb9af7;stop-opacity:1" />
    </linearGradient>
  </defs>

  <!-- Browser Window / Tab Shape -->
  <path d="M8 12 L12 4 H36 L40 12 H44 C46.2 12 48 13.8 48 16 V44 C48 46.2 46.2 48 44 48 H4 C1.8 48 0 46.2 0 44 V16 C0 13.8 1.8 12 4 12 H8 Z"
        fill="#1a1b26" stroke="url(#grad1)" stroke-width="2.5" stroke-linejoin="round"/>

  <!-- Brain / AI Circuitry -->
  <!-- Center Node -->
  <circle cx="24" cy="28" r="4.5" fill="#7aa2f7" />

  <!-- Surrounding Nodes representing Neural Net -->
  <circle cx="14" cy="20" r="3" fill="#bb9af7" />
  <circle cx="34" cy="20" r="3" fill="#bb9af7" />
  <circle cx="16" cy="38" r="3" fill="#9ece6a" /> <!-- Green for 'Go'/Active -->
  <circle cx="32" cy="38" r="3" fill="#f7768e" /> <!-- Red/Pink for complexity -->

  <!-- Connections -->
  <path d="M24 28 L14 20" stroke="#a9b1d6" stroke-width="2" stroke-linecap="round" opacity="0.7"/>
  <path d="M24 28 L34 20" stroke="#a9b1d6" stroke-width="2" stroke-linecap="round" opacity="0.7"/>
  <path d="M24 28 L16 38" stroke="#a9b1d6" stroke-width="2" stroke-linecap="round" opacity="0.7"/>
  <path d="M24 28 L32 38" stroke="#a9b1d6" stroke-width="2" stroke-linecap="round" opacity="0.7"/>

  <!-- Top connection (Idea spark) -->
  <line x1="24" y1="23.5" x2="24" y2="16" stroke="url(#grad1)" stroke-width="2" stroke-linecap="round" />
  <circle cx="24" cy="16" r="2" fill="#e0af68" />

</svg>